#N canvas 120 120 713 456 10;
#X floatatom 220 40 5 0 0 0 - - - 0;
#X obj 220 70 sig~;
#X obj 220 100 osc~;
#X obj 30 30 bng 20 250 50 0 empty empty play 0 -8 0 10 #fcfcfc #000000 #000000;
#X obj 30 60 t b b;
#X msg 30 90 1 10;
#X obj 100 90 del 10;
#X msg 100 120 0 300;
#X obj 30 150 line~;
#X obj 220 140 *~;
#X obj 220 170 *~ 0.2;
#X obj 220 210 dac~;
#X connect 0 0 1 0;
#X connect 1 0 2 0;
#X connect 2 0 9 0;
#X connect 3 0 4 0;
#X connect 4 0 5 0;
#X connect 4 1 6 0;
#X connect 5 0 8 0;
#X connect 6 0 7 0;
#X connect 7 0 8 0;
#X connect 8 0 9 1;
#X connect 9 0 10 0;
#X connect 10 0 11 0;
#X connect 10 0 11 1;
