#N canvas 178 120 182 236 10;
#X obj 8 12 inlet~;
#X obj 92 12 inlet~;
#X obj 8 156 *~;
#X obj 92 156 *~;
#X obj 92 92 cos~;
#X obj 92 68 -~ 0.25;
#X obj 92 44 *~ 0.25;
#X obj 8 208 outlet~;
#X obj 92 208 outlet~;
#X obj 8 92 -~ 0.25;
#X obj 8 116 cos~;
#X connect 0 0 2 0;
#X connect 0 0 3 0;
#X connect 1 0 6 0;
#X connect 1 0 9 0;
#X connect 2 0 7 0;
#X connect 3 0 8 0;
#X connect 4 0 3 1;
#X connect 5 0 4 0;
#X connect 6 0 5 0;
#X connect 9 0 10 0;
#X connect 10 0 2 1;
