#N canvas 148 116 232 212 10;
#X obj 8 -8 noise~;
#X obj 7 161 *~;
#X obj 84 115 *~;
#X obj 84 49 del 1000;
#X obj 84 28 inlet;
#X obj 7 181 outlet~;
#X obj 84 91 vline~;
#X msg 84 70 1 2000 \, 0 20000 2000;
#X obj 8 12 lop~ 80;
#X obj 8 32 lop~ 80;
#X obj 8 52 hip~ 15;
#X obj 8 92 clip~ -1 1;
#X obj 8 72 *~ 12;
#X obj 8 112 lop~ 80;
#X obj 8 132 lop~ 80;
#X connect 0 0 8 0;
#X connect 1 0 5 0;
#X connect 2 0 1 1;
#X connect 3 0 7 0;
#X connect 4 0 3 0;
#X connect 6 0 2 0;
#X connect 6 0 2 1;
#X connect 7 0 6 0;
#X connect 8 0 9 0;
#X connect 9 0 10 0;
#X connect 10 0 12 0;
#X connect 11 0 13 0;
#X connect 12 0 11 0;
#X connect 13 0 14 0;
#X connect 14 0 1 0;
