#N canvas 178 120 230 250 10;
#X obj 8 12 inlet~;
#X obj 112 12 inlet~;
#X obj 8 172 *~;
#X obj 112 172 *~;
#X obj 112 142 cos~;
#X obj 112 112 *~ 0.25;
#X obj 8 222 outlet~;
#X obj 112 222 outlet~;
#X obj 8 142 cos~;
#X obj 8 112 *~ 0.25;
#X obj 162 62 sig~ 1;
#X obj 162 92 -~;
#X connect 0 0 2 0;
#X connect 0 0 3 0;
#X connect 1 0 9 0;
#X connect 2 0 6 0;
#X connect 3 0 7 0;
#X connect 4 0 3 1;
#X connect 5 0 4 0;
#X connect 8 0 2 1;
#X connect 9 0 8 0;
#X connect 10 0 11 0;
#X connect 11 0 5 0;
#X connect 1 0 11 1;
