#N canvas 477 -780 450 300 10;
#N canvas -83 -772 205 392 distance 0;
#X obj 5 93 inlet~;
#X obj 4 370 outlet~;
#X obj 5 346 +~;
#X obj 32 199 delwrite~ distance 1000;
#X obj 21 243 sig~;
#X obj 5 115 lop~ 100;
#X obj 21 303 vd~ distance;
#X obj 21 323 *~ 0.5;
#X obj 67 2 inlet;
#X obj 99 30 t b f;
#X msg 99 54 1;
#X obj 107 90 -;
#X obj 107 132 + 50;
#X obj 5 137 lop~ 100;
#X obj 5 159 lop~ 100;
#X obj 21 283 +~ 2;
#X obj 21 263 *~ 3;
#X obj 107 111 * 6000;
#X obj 149 18 inlet;
#X connect 0 0 5 0;
#X connect 2 0 1 0;
#X connect 4 0 15 0;
#X connect 5 0 13 0;
#X connect 6 0 7 0;
#X connect 7 0 2 1;
#X connect 8 0 4 0;
#X connect 8 0 9 0;
#X connect 9 0 10 0;
#X connect 9 1 11 1;
#X connect 10 0 11 0;
#X connect 11 0 17 0;
#X connect 12 0 5 1;
#X connect 12 0 13 1;
#X connect 12 0 14 1;
#X connect 13 0 14 0;
#X connect 14 0 2 0;
#X connect 14 0 3 0;
#X connect 15 0 6 0;
#X connect 16 0 15 0;
#X connect 17 0 12 0;
#X connect 18 0 17 1;
#X restore 71 128 pd distance;
#X obj 71 88 inlet~;
#X obj 72 162 outlet~;
#X obj 117 81 inlet distance;
#X obj 252 83 inlet;
#X connect 0 0 2 0;
#X connect 1 0 0 0;
#X connect 3 0 0 1;
#X connect 4 0 0 2;
