#N canvas 95 82 204 321 10;
#X obj 0 154 noise~;
#X obj 39 207 *~;
#X obj 55 175 vline~;
#X obj 136 96 + 100;
#X obj 87 302 outlet~;
#X obj 55 0 inlet;
#X obj 39 265 bp~ 1 3;
#X obj 144 266 bp~ 1 3;
#X obj 166 140 * 0.5;
#X obj 55 45 t b f;
#X msg 55 23 1;
#X obj 55 68 -;
#X msg 55 153 1 \, 0 \$1 0;
#X obj 55 22 t f f;
#X obj 55 110 pow 5;
#X obj 55 89 + 0.4;
#X obj 136 117 t f f;
#X obj 136 75 * 1200;
#X obj 55 132 * 200;
#X connect 0 0 1 0;
#X connect 1 0 6 0;
#X connect 1 0 7 0;
#X connect 2 0 1 1;
#X connect 3 0 16 0;
#X connect 5 0 13 0;
#X connect 6 0 4 0;
#X connect 7 0 4 0;
#X connect 8 0 7 1;
#X connect 9 0 10 0;
#X connect 9 1 11 1;
#X connect 10 0 11 0;
#X connect 11 0 15 0;
#X connect 12 0 2 0;
#X connect 13 0 9 0;
#X connect 13 1 17 0;
#X connect 14 0 18 0;
#X connect 15 0 14 0;
#X connect 16 0 6 1;
#X connect 16 1 8 0;
#X connect 17 0 3 0;
#X connect 18 0 12 0;
