#N canvas 271 135 194 201 10;
#X obj 10 10 inlet;
#X obj 10 35 strike-pattern;
#X obj 10 60 route 0 1 2 3;
#X obj 10 90 strike-sound;
#X obj 52 110 strike-sound;
#X obj 94 130 strike-sound;
#X obj 136 150 strike-sound;
#X obj 40 175 outlet~;
#X connect 0 0 1 0;
#X connect 1 0 2 0;
#X connect 2 0 3 0;
#X connect 2 1 4 0;
#X connect 2 2 5 0;
#X connect 2 3 6 0;
#X connect 3 0 7 0;
#X connect 4 0 7 0;
#X connect 5 0 7 0;
#X connect 6 0 7 0;
