#N canvas 164 93 748 430 10;
#X obj 18 17 inlet;
#X obj 98 17 inlet;
#X obj 178 17 inlet;
#X obj 258 17 inlet;
#X obj 338 17 inlet;
#X obj 98 48 f;
#X obj 178 48 f;
#X obj 258 48 f;
#X obj 338 48 f;
#X obj 18 48 t b b b b;
#X obj 18 92 pack f f f f;
#X obj 18 126 unpack f f f f;
#X obj 18 160 expr sqrt((($f3 - $f1) * ($f3 - $f1)) + (($f4 - $f2) * ($f4 - $f2)));
#X obj 18 190 t f f f;
#X obj 18 220 s distance_m;
#X obj 168 220 expr max(0 \, min(1 \, 1 - ($f1 / 3000)));
#X obj 168 250 t f f f f f f;
#X obj 168 280 s near;
#X obj 278 280 expr 0.15 + (0.55 * $f1);
#X obj 278 308 s strike_gain;
#X obj 398 280 expr 0.15 + (0.35 * (1 - $f1));
#X obj 398 308 s rumble_gain;
#X obj 528 280 expr 0.1 + (0.5 * (1 - $f1));
#X obj 528 308 s after_gain;
#X obj 18 340 expr 0.1 + (0.45 * (1 - $f1));
#X obj 18 368 s deep_gain;
#X obj 168 340 expr 0.15 + (0.85 * (1 - $f1));
#X obj 168 368 s echo_gain;
#X obj 338 160 expr max(0 \, min(1 \, 0.5 + (0.5 * (($f3 - $f1) / max(sqrt((($f3 - $f1) * ($f3 - $f1)) + (($f4 - $f2) * ($f4 - $f2))) \, 1)))));
#X obj 338 190 s pan;
#X obj 528 160 * 2.91545;
#X obj 528 190 t f b f;
#X obj 528 220 s arrival_ms;
#X obj 628 220 del;
#X obj 628 248 outlet;
#X connect 0 0 9 0;
#X connect 1 0 5 1;
#X connect 2 0 6 1;
#X connect 3 0 7 1;
#X connect 4 0 8 1;
#X connect 5 0 10 0;
#X connect 6 0 10 1;
#X connect 7 0 10 2;
#X connect 8 0 10 3;
#X connect 9 0 5 0;
#X connect 9 1 6 0;
#X connect 9 2 7 0;
#X connect 9 3 8 0;
#X connect 10 0 11 0;
#X connect 11 0 12 0;
#X connect 11 0 28 0;
#X connect 11 1 12 1;
#X connect 11 1 28 1;
#X connect 11 2 12 2;
#X connect 11 2 28 2;
#X connect 11 3 12 3;
#X connect 11 3 28 3;
#X connect 12 0 13 0;
#X connect 13 0 14 0;
#X connect 13 1 30 0;
#X connect 13 2 15 0;
#X connect 15 0 16 0;
#X connect 16 0 17 0;
#X connect 16 1 18 0;
#X connect 16 2 20 0;
#X connect 16 3 22 0;
#X connect 16 4 24 0;
#X connect 16 5 26 0;
#X connect 18 0 19 0;
#X connect 20 0 21 0;
#X connect 22 0 23 0;
#X connect 24 0 25 0;
#X connect 26 0 27 0;
#X connect 28 0 29 0;
#X connect 30 0 31 0;
#X connect 31 0 32 0;
#X connect 31 1 33 0;
#X connect 31 2 33 1;
#X connect 33 0 34 0;
