#N canvas 174 73 933 563 10;
#X obj 18 18 inlet;
#X obj 98 18 inlet;
#X obj 178 18 inlet;
#X obj 258 18 inlet;
#X obj 338 18 inlet;
#X obj 18 54 thunder_control;
#X obj 18 86 s go;
#X obj 118 86 r go;
#X obj 118 112 strike_layer;
#X obj 206 112 r strike_gain;
#X obj 206 138 sig~;
#X obj 118 164 *~;
#X obj 118 190 throw~ drymono;
#X obj 298 86 r go;
#X obj 298 112 rumble;
#X obj 360 86 loadbang;
#X msg 360 112 7;
#X obj 388 112 r rumble_gain;
#X obj 388 138 sig~;
#X obj 298 164 *~;
#X obj 298 190 throw~ distmono;
#X obj 478 86 r go;
#X obj 478 112 afterimage_layer;
#X obj 586 112 r after_gain;
#X obj 586 138 sig~;
#X obj 478 164 *~;
#X obj 478 190 throw~ drymono;
#X obj 658 86 r go;
#X obj 658 112 deep_layer;
#X obj 748 112 r deep_gain;
#X obj 748 138 sig~;
#X obj 658 164 *~;
#X obj 658 190 throw~ distmono;
#X obj 118 230 catch~ distmono;
#X obj 208 230 r near;
#X obj 118 258 distance;
#X obj 118 290 catch~ drymono;
#X obj 118 320 +~;
#X obj 278 290 r pan;
#X obj 278 320 sig~;
#X obj 118 352 cpan;
#X obj 368 258 r echo_gain;
#X obj 368 290 sig~;
#X obj 308 320 *~;
#X obj 308 352 s~ udly;
#X obj 478 230 r go;
#X obj 478 258 s shake;
#X obj 558 230 echo_box;
#X obj 118 404 catch~ la;
#X obj 268 404 catch~ ra;
#X obj 118 436 +~;
#X obj 268 436 +~;
#X obj 118 476 dac~;
#X connect 0 0 5 0;
#X connect 1 0 5 1;
#X connect 2 0 5 2;
#X connect 3 0 5 3;
#X connect 4 0 5 4;
#X connect 5 0 6 0;
#X connect 7 0 8 0;
#X connect 8 0 11 0;
#X connect 9 0 10 0;
#X connect 10 0 11 1;
#X connect 11 0 12 0;
#X connect 13 0 14 0;
#X connect 14 0 19 0;
#X connect 15 0 16 0;
#X connect 16 0 14 1;
#X connect 17 0 18 0;
#X connect 18 0 19 1;
#X connect 19 0 20 0;
#X connect 21 0 22 0;
#X connect 22 0 25 0;
#X connect 23 0 24 0;
#X connect 24 0 25 1;
#X connect 25 0 26 0;
#X connect 27 0 28 0;
#X connect 28 0 31 0;
#X connect 29 0 30 0;
#X connect 30 0 31 1;
#X connect 31 0 32 0;
#X connect 33 0 35 0;
#X connect 34 0 35 1;
#X connect 35 0 37 1;
#X connect 35 0 43 0;
#X connect 36 0 37 0;
#X connect 37 0 40 0;
#X connect 38 0 39 0;
#X connect 39 0 40 1;
#X connect 40 0 50 0;
#X connect 40 1 51 0;
#X connect 41 0 42 0;
#X connect 42 0 43 1;
#X connect 43 0 44 0;
#X connect 45 0 46 0;
#X connect 48 0 50 1;
#X connect 49 0 51 1;
#X connect 50 0 52 0;
#X connect 51 0 52 1;
