#N canvas 179 93 780 360 10;
#X text 24 17 Spatial Thunder Control;
#X text 24 53 Trigger;
#X obj 24 74 bng 20 250 50 0 empty empty play 0 -6 0 8 #fcfcfc #000000 #000000;
#X text 120 53 Listener X;
#X floatatom 120 74 8 0 0 0 - - - 0;
#X text 220 53 Listener Y;
#X floatatom 220 74 8 0 0 0 - - - 0;
#X text 320 53 Thunder X;
#X floatatom 320 74 8 0 0 0 - - - 0;
#X text 420 53 Thunder Y;
#X floatatom 420 74 8 0 0 0 - - - 0;
#X text 540 53 Computed Distance (m);
#X floatatom 540 74 10 0 0 0 - - - 0;
#X obj 540 102 r distance_m;
#X text 24 135 Notes:;
#X text 24 157 1) Set listener and thunder XY coordinates.;
#X text 24 177 2) Distance is calculated automatically from coordinates.;
#X text 24 197 3) Press play to hear delayed/spatialized thunder.;
#X text 24 237 Audio Engine;
#X obj 24 261 thundercaster_xy;
#X connect 2 0 19 0;
#X connect 4 0 19 1;
#X connect 6 0 19 2;
#X connect 8 0 19 3;
#X connect 10 0 19 4;
#X connect 13 0 12 0;
