#N canvas 459 -1327 1306 1188 10;
#X obj 717 644 *~ 0.9;
#N canvas 152 29 452 513 afterimage 1;
#X obj 1 114 noise~;
#X obj 16 176 noise~;
#X obj 1 199 *~;
#X obj 1 241 bp~ 333 4;
#X obj 1 135 lop~ 3;
#X obj 1 220 clip~ -1 1;
#X obj 52 68 line;
#X obj 52 109 + 3;
#X obj 52 89 * 30;
#X obj 1 156 *~ 80;
#X obj 117 67 line;
#X obj 1 263 *~;
#X msg 52 48 1 \, 0 600;
#X obj 85 1 inlet;
#X obj 1 303 outlet~;
#X obj 85 23 del 200;
#X msg 117 47 1 \, 0 30000;
#X obj 1 283 *~ 0.2;
#X connect 0 0 4 0;
#X connect 1 0 2 1;
#X connect 2 0 5 0;
#X connect 3 0 11 0;
#X connect 4 0 9 0;
#X connect 5 0 3 0;
#X connect 6 0 8 0;
#X connect 7 0 4 1;
#X connect 8 0 7 0;
#X connect 9 0 2 0;
#X connect 10 0 11 1;
#X connect 11 0 17 0;
#X connect 12 0 6 0;
#X connect 13 0 15 0;
#X connect 15 0 12 0;
#X connect 15 0 16 0;
#X connect 16 0 10 0;
#X connect 17 0 14 0;
#X restore 717 622 pd afterimage;
#X obj 436 754 distance;
#X obj 487 730 line;
#X obj 34 607 r go;
#X obj 717 599 r go;
#X obj 865 588 r go;
#X obj 284 622 r go;
#X obj 342 601 line;
#X obj 328 498 r go;
#X obj 487 685 r go;
#X obj 329 1143 dac~;
#X obj 450 780 s~ udly;
#N canvas 235 425 616 191 box 0;
#X obj 319 51 f;
#X obj 319 29 inlet;
#X obj 1 7 udly 12000;
#X obj 11 17 udly 12000;
#X obj 21 27 udly 12000;
#X obj 31 37 udly 12000;
#X obj 41 47 udly 12000;
#X obj 51 57 udly 12000;
#X obj 87 7 udly 12000;
#X obj 97 17 udly 12000;
#X obj 107 27 udly 12000;
#X obj 117 37 udly 12000;
#X obj 127 47 udly 12000;
#X obj 137 57 udly 12000;
#X obj 172 6 udly 12000;
#X obj 182 16 udly 12000;
#X obj 192 26 udly 12000;
#X obj 202 36 udly 12000;
#X obj 212 46 udly 12000;
#X obj 222 56 udly 12000;
#X connect 1 0 0 0;
#X restore 1008 652 pd box of delays;
#X obj 86 860 catch~ la;
#X obj 532 755 catch~ ra;
#X obj 1008 632 tgl 15 0 empty empty empty 0 -6 0 8 #fcfcfc #000000 #000000 0 1;
#X obj 1033 629 s shake;
#X obj 1033 608 r go;
#X obj 28 126 bng 15 250 50 0 empty empty play 0 -6 0 8 #fcfcfc #000000 #000000;
#X obj 28 148 s go;
#X obj 342 623 * 2000;
#X obj 717 666 throw~ out;
#X obj 136 737 catch~ out;
#X obj 865 657 throw~ distance;
#X obj 285 687 throw~ distance;
#X obj 436 665 catch~ distance;
#N canvas 132 34 824 615 rumble 0;
#X obj 17 110 noise~;
#X obj 33 314 -~ 0.5;
#X obj 33 339 *~;
#X obj 33 359 *~ -4;
#X obj 33 379 +~ 1;
#X obj 33 399 *~ 0.5;
#X obj 75 28 noise~;
#X obj 75 89 max~ 0;
#X obj 17 172 samphold~;
#X msg 938 102 0.54;
#X obj 75 151 phasor~;
#X obj 75 111 *~ 3000;
#X obj 17 419 *~;
#X obj 17 439 hip~ 100;
#X obj 17 192 rpole~ 0.99;
#X obj 17 212 *~ 0.04;
#X obj 75 131 +~ 1;
#X obj 81 -12 inlet density;
#X obj 17 131 lop~;
#X obj 17 152 lop~;
#X obj 75 68 lop~;
#X obj 75 48 lop~;
#X obj 1 480 outlet~;
#X obj 17 241 min~ 0;
#X obj 17 263 *~ -1;
#X obj 65 240 max~ 0;
#X obj 17 286 +~;
#X obj 1 28 vline~;
#X obj 1 459 *~;
#X obj 1 -12 inlet trig;
#X msg 1 8 1 50 \, 0 8000 50;
#X connect 0 0 18 0;
#X connect 1 0 2 0;
#X connect 1 0 2 1;
#X connect 2 0 3 0;
#X connect 3 0 4 0;
#X connect 4 0 5 0;
#X connect 5 0 12 1;
#X connect 6 0 21 0;
#X connect 7 0 11 0;
#X connect 8 0 14 0;
#X connect 10 0 8 1;
#X connect 11 0 16 0;
#X connect 12 0 13 0;
#X connect 13 0 28 1;
#X connect 14 0 15 0;
#X connect 15 0 25 0;
#X connect 15 0 23 0;
#X connect 16 0 10 0;
#X connect 17 0 20 1;
#X connect 17 0 21 1;
#X connect 17 0 18 1;
#X connect 17 0 19 1;
#X connect 18 0 19 0;
#X connect 19 0 8 0;
#X connect 20 0 7 0;
#X connect 21 0 20 0;
#X connect 23 0 24 0;
#X connect 24 0 26 0;
#X connect 25 0 26 1;
#X connect 26 0 1 0;
#X connect 26 0 12 0;
#X connect 27 0 28 0;
#X connect 28 0 22 0;
#X connect 29 0 30 0;
#X connect 30 0 27 0;
#X restore 284 645 pd rumble;
#N canvas 446 269 323 190 strike 1;
#X obj 0 172 outlet~;
#X obj 1 44 route 0 1 2 3;
#X obj 1 0 inlet;
#X obj 1 23 strike-pattern;
#X obj 1 67 strike-sound;
#X obj 22 87 strike-sound;
#X obj 44 107 strike-sound;
#X obj 65 126 strike-sound;
#X connect 1 0 4 0;
#X connect 1 1 5 0;
#X connect 1 2 6 0;
#X connect 1 3 7 0;
#X connect 2 0 3 0;
#X connect 3 0 1 0;
#X connect 4 0 0 0;
#X connect 5 0 0 0;
#X connect 6 0 0 0;
#X connect 7 0 0 0;
#X restore 34 630 pd strike sound;
#N canvas 148 116 232 212 deep 0;
#X obj 8 -8 noise~;
#X obj 7 161 *~;
#X obj 84 115 *~;
#X obj 84 49 del 1000;
#X obj 84 28 inlet;
#X obj 7 181 outlet~;
#X obj 84 91 vline~;
#X msg 84 70 1 2000 \, 0 20000 2000;
#X obj 8 12 lop~ 80;
#X obj 8 32 lop~ 80;
#X obj 8 52 hip~ 15;
#X obj 8 92 clip~ -1 1;
#X obj 8 72 *~ 12;
#X obj 8 112 lop~ 80;
#X obj 8 132 lop~ 80;
#X connect 0 0 8 0;
#X connect 1 0 5 0;
#X connect 2 0 1 1;
#X connect 3 0 7 0;
#X connect 4 0 3 0;
#X connect 6 0 2 0;
#X connect 6 0 2 1;
#X connect 7 0 6 0;
#X connect 8 0 9 0;
#X connect 9 0 10 0;
#X connect 10 0 12 0;
#X connect 11 0 13 0;
#X connect 12 0 11 0;
#X connect 13 0 14 0;
#X connect 14 0 1 0;
#X restore 865 610 pd deep;
#X obj 34 671 throw~ out;
#X obj 34 651 *~ 0.3;
#X obj 285 666 *~ 0.3;
#X obj 865 633 *~ 0.5;
#X msg 325 541 1 \, 0 9000;
#X floatatom 907 481 15 0 0 0 deep_param - - 0;
#X floatatom 705 531 15 0 0 3 afterimage_param - - 0;
#X floatatom 299 570 5 0 0 0 rumble_param - - 0;
#X floatatom 51 441 19 0 0 3 strike_sound_param - - 0;
#X msg 487 707 0 \, 1 12000;
#X floatatom 398 557 5 0 0 3 rumble_force_param - - 0;
#X obj 256 291 clip 0 1;
#X obj 396 397 expr 300 + (2700 * pow(1 - $f1 \, 1.8));
#X obj 253 240 / 1000;
#X obj 871 349 expr 0.01 + 0.3 * pow(1 - $f1 \, 1.4);
#X floatatom 564 211 5 0 1 0 out_pan - - 0;
#X obj 226 735 sig~;
#X obj 136 771 direct_pan;
#X obj 669 382 expr 0.02 + 30 * pow(1 - $f1 \, 1.7);
#X obj 254 448 expr 2 * pow(1 - $f1 \, 1.6);
#X obj 37 381 expr 0.01 + (5 * pow(1 - $f1 \, 10));
#X floatatom 249 132 20 0 0 0 general_distance - - 0;
#X obj 167 952 *~;
#X obj 193 897 *~;
#X obj 248 917 *~;
#X obj 346 978 *~;
#X obj 392 948 *~;
#X obj 443 956 *~;
#X obj 720 210 clip 0 1;
#X floatatom 298 836 5 0 0 0 - - - 0;
#X floatatom 707 157 5 0 0 0 general_volume - - 0;
#X connect 0 0 22 0;
#X connect 1 0 0 0;
#X connect 2 0 12 0;
#X connect 2 0 55 0;
#X connect 2 0 56 0;
#X connect 3 0 2 1;
#X connect 4 0 28 0;
#X connect 5 0 1 0;
#X connect 6 0 29 0;
#X connect 7 0 27 0;
#X connect 8 0 21 0;
#X connect 9 0 34 0;
#X connect 10 0 39 0;
#X connect 14 0 52 0;
#X connect 15 0 57 0;
#X connect 16 0 13 0;
#X connect 18 0 17 0;
#X connect 19 0 20 0;
#X connect 19 0 51 0;
#X connect 21 0 27 1;
#X connect 23 0 47 0;
#X connect 26 0 2 0;
#X connect 27 0 32 0;
#X connect 28 0 31 0;
#X connect 29 0 33 0;
#X connect 31 0 30 0;
#X connect 32 0 25 0;
#X connect 33 0 24 0;
#X connect 34 0 8 0;
#X connect 35 0 33 1;
#X connect 36 0 0 1;
#X connect 37 0 32 1;
#X connect 38 0 31 1;
#X connect 39 0 3 0;
#X connect 40 0 21 1;
#X connect 41 0 42 0;
#X connect 41 0 44 0;
#X connect 41 0 48 0;
#X connect 41 0 49 0;
#X connect 41 0 50 0;
#X connect 42 0 40 0;
#X connect 43 0 41 0;
#X connect 44 0 35 0;
#X connect 45 0 46 0;
#X connect 46 0 47 1;
#X connect 47 0 53 0;
#X connect 47 1 54 0;
#X connect 48 0 36 0;
#X connect 49 0 37 0;
#X connect 50 0 38 0;
#X connect 51 0 43 0;
#X connect 52 0 11 0;
#X connect 53 0 11 0;
#X connect 54 0 11 1;
#X connect 55 0 11 0;
#X connect 56 0 11 1;
#X connect 57 0 11 1;
#X connect 58 0 59 0;
#X connect 59 0 52 1;
#X connect 59 0 53 1;
#X connect 59 0 54 1;
#X connect 59 0 55 1;
#X connect 59 0 56 1;
#X connect 59 0 57 1;
#X connect 60 0 58 0;
